<?xml version="1.0" standalone="no"?>
<!DOCTYPE svg PUBLIC "-//W3C//DTD SVG 20010904//EN"
 "http://www.w3.org/TR/2001/REC-SVG-20010904/DTD/svg10.dtd">
<svg version="1.0" xmlns="http://www.w3.org/2000/svg"
 width="2530.000000pt" height="906.000000pt" viewBox="0 0 2530.000000 906.000000"
 preserveAspectRatio="xMidYMid meet">

<g transform="translate(0.000000,906.000000) scale(0.100000,-0.100000)"
fill="#000000" stroke="none">
<path d="M3900 7117 c0 -13 3 -27 7 -31 4 -4 13 -31 20 -59 6 -29 19 -81 28
-117 9 -36 22 -87 28 -115 6 -27 14 -52 18 -55 4 -3 10 -29 14 -57 4 -29 11
-55 15 -58 4 -3 11 -29 15 -58 4 -28 11 -56 15 -62 4 -5 11 -30 15 -55 4 -25
10 -49 14 -55 6 -10 15 -47 41 -160 6 -27 15 -57 20 -66 4 -9 12 -38 15 -65 4
-27 11 -53 15 -59 4 -5 11 -30 15 -55 4 -25 11 -49 15 -55 4 -5 11 -30 15 -55
4 -25 11 -49 15 -55 4 -5 11 -32 15 -59 3 -27 11 -56 15 -65 5 -9 14 -37 20
-63 5 -27 15 -69 20 -95 6 -27 15 -55 20 -64 4 -9 12 -38 15 -65 4 -27 11 -53
15 -59 5 -5 11 -31 15 -58 4 -26 11 -50 15 -52 5 -3 12 -30 15 -60 4 -30 11
-55 15 -55 4 0 11 -23 14 -52 4 -28 10 -57 14 -62 7 -10 16 -46 42 -161 6 -27
15 -57 20 -66 4 -9 12 -38 15 -65 4 -27 11 -53 15 -59 4 -5 11 -30 15 -55 4
-25 11 -49 15 -55 4 -5 11 -30 15 -55 4 -25 11 -49 15 -55 4 -5 11 -32 15 -59
3 -27 11 -56 15 -65 5 -9 14 -37 20 -63 5 -27 15 -69 20 -95 6 -27 15 -55 20
-64 4 -9 12 -38 15 -65 4 -27 11 -53 15 -59 4 -5 11 -30 15 -55 4 -25 11 -49
15 -55 4 -5 11 -30 15 -55 4 -25 11 -49 15 -55 4 -5 11 -32 15 -60 4 -27 10
-54 13 -60 7 -9 16 -46 42 -160 6 -27 15 -57 20 -67 5 -9 12 -39 16 -67 4 -28
10 -51 14 -51 4 0 11 -25 15 -55 3 -30 10 -57 15 -60 4 -3 11 -28 15 -55 4
-27 10 -52 15 -55 4 -3 11 -29 15 -60 3 -30 10 -57 15 -60 4 -3 11 -28 15 -55
4 -27 10 -52 15 -55 4 -3 11 -29 15 -60 3 -30 10 -57 15 -60 4 -3 11 -29 15
-58 4 -28 11 -56 15 -62 4 -5 11 -30 15 -55 4 -25 11 -49 15 -55 4 -5 11 -30
15 -55 4 -25 11 -49 15 -55 4 -5 11 -34 15 -62 4 -29 10 -55 15 -58 4 -3 11
-26 15 -52 4 -27 10 -52 15 -58 4 -5 11 -32 15 -59 3 -27 11 -56 15 -65 5 -9
11 -28 15 -44 l5 -27 7273 2 7272 3 14 50 c7 28 18 73 25 100 6 28 14 55 17
60 4 6 10 30 14 55 4 25 11 50 15 55 4 6 11 30 15 55 4 25 10 50 14 55 3 6 11
33 18 60 6 28 19 79 28 115 9 36 22 88 28 115 7 28 15 55 18 60 4 6 10 30 14
55 4 25 11 50 15 55 4 6 11 30 15 55 4 25 11 50 15 55 4 6 11 32 15 59 3 27
11 56 15 65 5 9 14 39 20 66 26 113 35 150 41 160 4 6 10 30 14 55 4 25 11 50
15 55 4 6 11 30 15 55 4 25 11 50 15 55 4 6 11 32 15 59 3 27 11 56 15 65 5 9
14 39 20 66 26 113 35 150 41 160 4 6 10 30 14 55 4 25 11 50 15 55 4 6 11 30
15 55 4 25 10 50 14 55 3 6 12 34 18 63 7 28 19 76 26 105 6 28 15 57 19 63 4
5 10 34 14 62 3 29 10 52 14 52 4 0 11 25 15 55 3 30 10 57 15 60 4 3 11 28
15 55 4 27 10 52 15 55 4 3 11 29 15 60 3 30 10 57 15 60 4 3 11 28 15 55 4
27 11 52 15 55 5 3 12 30 15 60 4 30 11 55 15 55 4 0 11 25 15 55 3 30 10 57
15 60 4 3 11 28 15 55 4 27 11 52 15 55 4 3 11 29 15 58 4 28 11 57 15 62 4 6
11 30 15 55 4 25 11 50 15 55 4 6 11 30 15 55 4 25 11 50 15 55 4 6 11 34 15
62 4 29 11 55 15 58 4 3 11 28 15 55 4 27 11 52 15 55 5 3 12 30 15 60 4 31
11 57 15 60 5 3 11 28 15 55 4 27 11 52 15 55 4 3 11 28 15 55 4 27 11 52 15
55 4 3 11 29 15 58 4 28 11 57 15 62 4 6 11 30 15 55 4 24 11 51 16 60 4 8 13
38 19 65 26 114 35 151 42 160 3 6 9 31 13 58 4 26 11 49 15 52 5 3 11 29 15
58 4 28 11 57 15 62 4 6 11 30 15 55 4 25 11 50 15 55 4 6 11 28 14 50 4 22
14 59 22 83 8 23 14 47 14 52 0 7 -3092 10 -8630 10 l-8630 0 0 -23z m4590
-1322 l0 -136 43 22 c23 13 50 26 59 31 25 12 158 10 158 -2 0 -5 6 -10 13
-10 8 0 22 -9 32 -20 36 -39 45 -89 45 -247 l0 -152 35 -17 c19 -9 35 -23 35
-30 0 -14 -7 -15 -160 -15 -108 0 -110 0 -110 15 0 7 13 19 30 26 47 19 57 52
59 193 1 106 -2 131 -17 159 -16 29 -24 33 -65 36 -35 2 -59 -3 -90 -20 -69
-38 -67 -32 -67 -196 l0 -150 40 -19 c22 -10 40 -24 40 -30 0 -13 -8 -14 -140
-14 -133 0 -140 1 -140 14 0 7 16 19 36 26 21 8 39 22 45 38 11 30 12 493 0
511 -7 12 -56 42 -67 42 -6 0 7 -53 16 -65 5 -5 11 -26 15 -47 11 -60 -19 -54
-91 18 -60 61 -88 74 -155 74 l-29 0 0 -264 c0 -145 3 -271 6 -279 3 -9 25
-21 50 -28 24 -7 44 -19 44 -26 0 -14 -71 -19 -217 -15 -81 3 -103 6 -103 18
0 8 6 14 14 14 28 0 70 30 82 59 16 39 18 489 2 509 -16 19 -79 14 -123 -9
-40 -22 -105 -83 -105 -99 0 -5 -6 -10 -12 -13 -20 -6 -47 4 -43 16 26 92 49
159 57 163 5 3 142 6 304 5 162 0 294 3 294 8 0 5 23 11 50 15 28 4 50 11 50
16 0 6 18 10 40 10 l40 0 0 -135z m731 -92 c72 -39 109 -98 109 -174 l0 -29
-171 0 -172 0 7 -59 c12 -101 46 -151 122 -177 43 -14 48 -14 89 5 23 11 52
32 63 46 24 30 62 34 62 6 0 -26 -60 -88 -93 -96 -15 -4 -27 -11 -27 -16 0 -5
-37 -9 -82 -8 -71 0 -90 4 -132 27 -32 18 -56 41 -70 67 -11 22 -25 43 -31 47
-6 4 -10 55 -10 115 0 102 2 110 29 153 30 47 49 64 100 91 44 24 164 24 207
2z m-1746 -293 c3 -5 16 -10 29 -10 38 0 143 -58 176 -98 48 -58 49 -59 56
-86 3 -15 10 -29 15 -32 13 -7 12 -204 -1 -204 -5 0 -10 -8 -10 -17 0 -33 -72
-132 -116 -161 -34 -22 -96 -48 -136 -56 -15 -4 -116 -7 -223 -7 l-195 0 0
-172 c0 -248 11 -274 119 -284 l61 -6 0 -33 0 -34 -265 0 -265 0 0 34 c0 32 1
34 47 39 38 4 53 12 74 37 24 28 28 44 34 134 4 55 5 265 3 465 -2 280 -6 365
-15 369 -7 2 -13 10 -13 17 0 17 -61 45 -99 45 -29 0 -31 3 -31 35 l0 35 374
0 c239 0 377 -4 381 -10z m6313 -157 l2 -163 120 0 120 0 0 -35 0 -35 -120 0
-120 0 0 -314 c0 -173 4 -326 9 -339 5 -13 21 -37 36 -53 22 -23 33 -28 74
-27 48 1 82 16 130 60 l24 21 29 -29 30 -29 -34 -34 c-59 -59 -112 -76 -236
-76 -95 0 -115 3 -153 23 -24 13 -56 41 -71 63 l-27 39 -1 348 0 347 -76 0
-75 0 3 38 c3 34 5 37 38 40 72 6 156 68 167 125 3 15 9 27 13 27 4 0 11 38
15 86 l7 85 46 -3 47 -3 3 -162z m663 123 c55 -23 71 -47 71 -111 1 -50 -2
-60 -27 -81 -15 -13 -40 -24 -54 -25 -86 -4 -117 13 -140 76 -19 53 8 105 73
141 29 16 38 16 77 0z m-3831 -181 c26 -24 26 -76 1 -99 -20 -18 -74 -18 -156
-1 -23 4 -37 0 -59 -18 l-29 -24 39 -39 c41 -41 84 -118 84 -151 0 -10 5 -24
11 -30 19 -19 -2 -143 -35 -209 -18 -36 -87 -101 -136 -128 -43 -24 -203 -35
-303 -22 -63 8 -69 7 -91 -13 -36 -34 -39 -59 -9 -87 14 -13 35 -24 47 -25 21
0 53 -4 271 -33 225 -30 272 -44 328 -98 15 -15 30 -41 33 -58 4 -17 11 -33
15 -36 27 -16 -7 -147 -53 -206 -33 -43 -116 -96 -161 -105 -18 -3 -38 -11
-46 -17 -24 -18 -416 -13 -466 6 l-40 16 -3 -61 c-3 -66 -26 -127 -62 -165
-32 -34 -95 -71 -138 -81 -20 -5 -29 -9 -19 -10 9 -1 17 -5 17 -10 0 -5 18
-11 40 -15 22 -3 40 -10 40 -15 0 -5 10 -11 23 -15 34 -8 111 -89 136 -141 16
-35 21 -64 21 -134 0 -50 -4 -92 -9 -95 -5 -3 -12 -22 -15 -41 -4 -19 -11 -35
-16 -35 -6 0 -10 -6 -10 -12 0 -19 -73 -95 -99 -103 -11 -3 -21 -10 -21 -15 0
-5 -13 -11 -30 -15 -16 -4 -30 -10 -30 -15 0 -5 -26 -12 -57 -16 -32 -4 -61
-11 -64 -17 -5 -6 -167 -10 -450 -11 l-444 -1 0 35 c0 34 1 35 52 45 75 15
103 43 103 104 0 28 4 52 9 56 13 7 13 802 0 810 -5 4 -9 26 -9 51 0 56 -30
85 -103 99 -49 10 -52 12 -55 43 l-3 32 443 -3 c431 -3 534 -10 563 -38 16
-16 25 -10 25 16 0 14 6 33 13 42 30 39 77 81 107 95 l32 16 -28 17 c-62 36
-88 108 -64 179 13 40 72 106 95 106 8 0 15 5 15 10 0 6 8 10 18 10 15 0 11 9
-21 41 -59 63 -77 114 -77 219 0 49 4 91 9 94 4 3 11 18 14 34 8 37 85 123
134 147 21 11 40 23 43 27 11 15 116 23 212 16 l99 -6 58 58 c46 45 69 60 103
67 57 12 132 1 158 -22z m-2146 -84 c3 -4 24 -11 46 -14 52 -7 79 -38 80 -94
0 -33 -6 -48 -31 -72 -42 -43 -99 -43 -167 -1 -27 17 -57 30 -67 30 -27 0
-107 -42 -133 -69 -23 -25 -23 -25 -20 -290 l3 -266 24 -24 c17 -17 39 -26 73
-29 47 -4 48 -5 48 -38 l0 -34 -250 0 -250 0 0 35 c0 33 2 35 35 35 42 0 95
25 95 44 0 8 6 16 13 18 9 4 12 67 12 274 0 250 -1 271 -20 302 -10 17 -28 34
-40 37 -88 24 -95 28 -95 57 0 21 5 28 19 28 11 0 22 4 25 9 3 5 36 12 73 16
38 4 73 11 80 16 6 6 42 9 80 7 l68 -3 6 -55 c3 -30 6 -50 7 -44 2 13 103 84
119 84 6 0 13 5 15 10 2 6 29 14 61 17 32 3 60 10 63 14 7 11 21 11 28 0z
m2969 -12 c32 -5 65 -14 73 -21 32 -26 84 -82 84 -91 0 -4 19 5 43 21 105 70
258 119 316 101 14 -5 43 -11 64 -14 20 -3 37 -10 37 -15 0 -6 6 -10 13 -10
15 0 54 -40 83 -85 17 -28 19 -54 22 -332 2 -176 7 -303 13 -303 5 0 9 -6 9
-13 0 -20 39 -48 76 -54 25 -4 36 -12 40 -29 3 -12 3 -28 -1 -33 -4 -7 -85
-11 -236 -11 l-229 0 0 34 c0 32 2 34 42 39 56 7 88 43 88 97 0 21 5 42 10 45
12 8 6 359 -7 449 -8 48 -15 64 -43 89 -31 28 -36 29 -104 25 -72 -5 -87 -11
-193 -82 l-33 -21 0 -265 0 -266 28 -33 c20 -24 38 -34 70 -38 40 -5 42 -7 42
-39 l0 -34 -235 0 -235 0 0 34 c0 32 2 34 42 39 56 7 88 43 88 97 0 21 4 41
10 45 11 7 6 361 -7 454 -7 52 -14 68 -38 88 -27 23 -35 25 -104 21 -61 -4
-88 -11 -134 -37 -32 -17 -70 -42 -84 -55 l-25 -24 4 -258 c3 -225 6 -262 21
-285 21 -31 57 -49 97 -49 28 0 30 -3 30 -35 l0 -35 -235 0 -235 0 0 34 c0 31
3 34 38 40 20 3 48 16 62 27 l25 21 3 272 c2 149 1 280 -2 291 -8 31 -44 65
-69 65 -74 0 -107 65 -44 88 17 6 62 14 100 18 37 4 67 11 67 15 0 5 32 9 70
9 l70 0 1 -57 c0 -32 3 -52 6 -46 6 16 116 83 136 83 8 0 17 5 19 10 2 6 30
14 63 17 33 3 67 10 75 14 8 5 24 6 35 3 11 -3 46 -10 78 -15z m-2206 -4 c29
-4 55 -11 58 -16 4 -5 14 -9 24 -9 9 0 38 -13 64 -30 81 -51 85 -68 89 -399 3
-211 7 -286 16 -289 7 -2 12 -9 12 -16 0 -33 88 -63 105 -36 10 16 39 11 58
-10 23 -27 22 -37 -5 -51 -13 -7 -26 -17 -30 -22 -8 -13 -173 -22 -222 -13
-34 6 -98 58 -108 87 -4 11 -11 11 -34 -4 -16 -10 -37 -21 -46 -24 -10 -3 -18
-9 -18 -14 0 -5 -6 -9 -12 -9 -7 0 -25 -6 -39 -14 -43 -22 -77 -27 -186 -27
-114 0 -164 15 -222 67 -45 40 -61 79 -61 149 0 101 42 160 150 210 30 15 62
30 71 35 9 4 37 11 63 15 25 4 48 11 51 15 3 5 44 11 93 15 48 3 106 11 130
18 l42 11 0 90 c0 106 -18 142 -84 172 -51 23 -170 26 -212 4 -57 -28 -74 -50
-74 -98 0 -52 -21 -92 -58 -110 -34 -16 -45 -15 -81 6 -37 20 -45 45 -39 111
4 40 12 54 48 89 23 23 49 42 56 42 8 0 14 4 14 8 0 12 113 44 179 51 62 7
128 5 208 -4z m3722 0 c35 -3 69 -9 75 -14 6 -4 23 -11 38 -15 43 -10 118 -87
124 -127 3 -19 7 -135 9 -259 3 -258 13 -338 44 -369 22 -22 75 -29 86 -11 9
15 36 12 57 -7 59 -53 -50 -105 -199 -93 -57 5 -78 12 -108 34 -20 15 -41 38
-47 51 l-10 23 -52 -33 c-28 -17 -62 -36 -76 -40 -14 -4 -31 -13 -39 -19 -9
-7 -64 -11 -150 -11 -169 0 -221 19 -272 102 -23 37 -28 148 -9 197 13 35 84
104 116 112 13 3 24 10 24 15 0 5 7 9 16 9 9 0 30 7 47 15 46 21 110 36 202
46 44 6 104 15 133 21 l52 11 0 82 c0 147 -56 201 -210 200 -64 -1 -81 -5
-117 -28 -40 -26 -43 -30 -43 -73 0 -57 -22 -99 -61 -120 -37 -19 -69 -13
-104 20 -20 19 -25 33 -25 74 0 45 4 54 43 95 43 45 109 87 137 87 9 0 21 5
27 11 11 11 160 28 203 23 14 -2 54 -5 89 -9z m2368 0 c24 -4 45 -10 48 -14 2
-5 16 -12 31 -15 27 -7 35 -13 87 -61 48 -45 67 -86 67 -146 0 -46 -4 -56 -32
-81 -42 -37 -84 -37 -126 0 -29 26 -31 33 -34 101 -3 72 -4 75 -41 105 -36 29
-44 31 -117 31 -72 0 -81 -2 -115 -30 -33 -26 -50 -53 -88 -129 -5 -11 -11
-56 -14 -100 -3 -45 -10 -89 -15 -99 -6 -11 -6 -23 0 -30 5 -7 12 -41 15 -77
3 -36 12 -78 21 -95 9 -16 16 -34 16 -38 0 -19 86 -107 105 -107 7 0 15 -6 18
-12 5 -17 194 -18 205 -2 4 6 16 14 28 18 22 7 92 71 118 108 16 23 16 23 51
4 19 -11 35 -23 35 -28 0 -28 -109 -129 -174 -162 -109 -55 -322 -52 -434 6
-64 33 -162 126 -162 154 0 7 -4 14 -9 14 -5 0 -13 15 -16 33 -4 17 -12 38
-19 46 -17 21 -15 277 3 321 52 131 110 202 204 250 83 42 202 54 344 35z
m-817 -385 l5 -375 23 -23 c15 -15 42 -26 70 -31 44 -6 47 -8 47 -36 l0 -30
-248 -3 -248 -2 3 32 c3 28 7 33 33 36 48 5 83 22 102 51 16 23 18 52 18 291
0 246 -1 267 -20 298 -10 17 -28 34 -40 37 -88 24 -95 28 -95 57 0 21 5 28 19
28 11 0 22 4 25 9 3 5 37 12 76 16 39 4 73 11 76 16 3 6 38 9 77 7 l72 -3 5
-375z m3225 -579 c36 -24 40 -32 43 -74 3 -40 -1 -51 -20 -67 -53 -44 -119
-32 -169 31 -28 36 -35 39 -78 39 -42 0 -52 -4 -82 -37 l-34 -38 -3 -137 -4
-138 91 0 91 0 0 -35 0 -35 -90 0 -91 0 3 -349 3 -350 29 -29 c19 -20 43 -33
75 -39 43 -7 46 -10 49 -41 l3 -32 -255 0 -256 0 0 34 c0 32 2 34 47 40 34 4
53 14 73 36 36 40 40 88 40 448 l0 282 -80 0 -80 0 0 35 0 35 80 0 80 0 0 110
c0 61 4 110 9 110 5 0 11 13 14 29 9 43 103 135 151 147 14 3 26 10 26 14 0 5
19 11 43 15 23 4 47 11 52 16 12 9 102 15 160 11 22 -2 58 -16 80 -31z m-5254
-13 c0 -7 1 -194 1 -415 1 -222 5 -403 9 -403 5 0 23 15 42 33 30 29 72 66
215 192 36 32 43 43 40 69 -3 28 -8 32 -48 42 -40 9 -45 14 -48 42 l-3 32 255
0 256 0 0 -34 c0 -36 -15 -46 -72 -46 -15 0 -30 -4 -33 -10 -3 -5 -13 -10 -22
-10 -18 0 -106 -41 -111 -52 -2 -5 -8 -8 -14 -8 -11 0 -73 -48 -135 -104 -31
-27 -43 -56 -25 -56 4 0 16 -16 27 -36 10 -19 27 -45 37 -57 10 -12 21 -26 26
-32 4 -5 19 -28 32 -50 13 -22 27 -42 30 -45 3 -3 32 -44 63 -91 84 -125 154
-186 237 -204 30 -7 49 -42 35 -64 -4 -7 -94 -11 -266 -11 l-259 0 0 35 c0 33
2 35 33 35 52 0 71 20 63 63 -4 21 -11 37 -16 37 -6 0 -10 5 -10 11 0 12 -161
252 -172 257 -5 2 -8 10 -8 18 0 29 -19 17 -124 -78 -27 -25 -30 -35 -32 -93
-2 -35 2 -67 7 -70 5 -4 9 -24 9 -45 0 -59 33 -91 98 -98 51 -4 52 -5 52 -38
l0 -34 -261 0 -260 0 3 32 c3 31 6 33 52 41 53 9 96 43 96 77 0 10 4 21 10 25
13 8 14 912 0 920 -5 3 -10 15 -10 26 0 33 -47 68 -102 75 l-49 7 3 36 c3 35
4 36 53 43 97 13 175 31 175 39 0 15 120 11 121 -3z m2130 -10 c0 -13 0 -134
0 -270 0 -137 2 -248 5 -248 2 0 27 16 54 35 27 19 54 35 60 35 5 0 10 4 10 9
0 5 15 13 33 16 17 4 37 12 44 17 10 8 132 28 173 29 39 0 137 -22 169 -38 48
-24 100 -81 107 -118 3 -16 7 -147 8 -290 2 -143 8 -283 13 -310 11 -64 40
-94 98 -102 36 -5 46 -10 51 -29 3 -12 3 -28 -1 -33 -4 -7 -93 -11 -261 -11
l-254 0 0 34 c0 32 1 33 50 39 105 13 120 56 120 360 0 343 -14 373 -170 371
-59 -1 -94 -6 -115 -17 -16 -9 -35 -17 -42 -17 -6 0 -13 -3 -15 -7 -1 -5 -19
-16 -39 -26 -20 -11 -50 -31 -67 -47 l-30 -27 3 -219 c4 -324 16 -361 111
-372 36 -4 45 -9 50 -28 3 -12 3 -28 -1 -33 -4 -7 -93 -11 -261 -11 l-254 0 0
34 c0 32 1 33 50 39 60 7 83 27 104 87 13 38 16 112 16 493 0 291 -3 447 -10
447 -5 0 -10 9 -10 20 0 34 -47 69 -102 76 l-49 7 3 36 c3 35 4 36 53 43 86
11 170 30 180 39 5 5 33 9 62 9 48 0 53 -2 54 -22z m2209 -505 c0 -291 3 -558
6 -595 8 -85 38 -124 102 -134 40 -6 42 -8 42 -40 l0 -34 -251 0 -250 0 3 32
c3 30 7 33 47 41 28 6 56 20 75 40 l31 30 0 492 0 492 -32 31 c-23 23 -44 34
-77 38 -45 7 -46 7 -46 44 l0 38 53 5 c70 7 160 26 172 38 5 5 35 9 67 9 l58
0 0 -527z m-6189 112 c31 -2 69 -12 85 -20 16 -8 35 -15 42 -15 6 0 12 -4 12
-10 0 -5 7 -10 15 -10 39 0 165 -168 165 -219 0 -11 6 -21 13 -23 16 -6 18
-335 1 -346 -6 -4 -15 -22 -19 -39 -3 -18 -10 -33 -15 -33 -5 0 -12 -10 -16
-22 -9 -29 -109 -128 -129 -128 -8 0 -15 -4 -15 -10 0 -5 -6 -10 -12 -10 -7 0
-26 -7 -42 -15 -71 -37 -321 -38 -391 -1 -16 9 -36 16 -42 16 -7 0 -13 5 -13
10 0 6 -6 10 -14 10 -20 0 -135 126 -142 155 -3 14 -10 25 -14 25 -5 0 -11 19
-15 43 -4 23 -12 47 -17 54 -12 15 -5 226 11 283 6 25 22 65 33 90 24 48 125
160 146 160 6 0 12 5 12 10 0 6 6 10 13 10 6 0 26 7 42 16 32 17 156 33 215
28 19 -2 60 -6 91 -9z m1072 -1 c21 -3 51 -12 65 -20 15 -8 33 -14 40 -14 6 0
12 -4 12 -10 0 -5 7 -10 15 -10 20 0 110 -92 127 -130 7 -16 16 -30 20 -30 3
0 10 -15 13 -32 4 -18 12 -39 19 -47 7 -9 11 -69 11 -171 0 -102 -4 -162 -11
-171 -7 -8 -15 -29 -19 -46 -3 -18 -11 -33 -16 -33 -5 0 -9 -7 -9 -15 0 -37
-154 -165 -197 -165 -7 0 -13 -4 -13 -9 0 -20 -215 -32 -313 -17 -26 4 -59 14
-75 22 -15 7 -33 14 -39 14 -7 0 -13 5 -13 10 0 6 -6 10 -14 10 -20 0 -135
126 -142 155 -3 14 -10 25 -14 25 -5 0 -11 19 -15 43 -4 23 -12 47 -17 54 -12
15 -5 226 11 283 6 25 22 65 33 90 24 48 125 160 146 160 6 0 12 5 12 10 0 6
6 10 13 10 6 0 26 7 42 16 51 28 211 36 328 18z m2201 -27 c27 -15 50 -26 50
-25 10 27 28 44 54 46 38 4 47 -11 57 -93 4 -33 10 -64 15 -70 4 -5 11 -36 15
-69 5 -44 3 -61 -7 -67 -28 -18 -48 -8 -81 44 -46 70 -85 106 -157 145 -53 28
-71 32 -134 32 -50 0 -84 -6 -110 -18 -39 -19 -76 -69 -76 -103 0 -26 29 -69
46 -69 8 0 14 -4 14 -9 0 -9 18 -14 155 -46 229 -54 267 -66 329 -105 26 -17
50 -40 53 -50 3 -11 9 -20 13 -20 13 0 23 -59 22 -132 -1 -117 -46 -185 -163
-248 -50 -26 -78 -34 -136 -38 -40 -3 -76 -9 -79 -13 -3 -5 -13 -5 -22 0 -9 4
-46 11 -83 13 -36 3 -74 10 -85 16 -10 6 -38 20 -62 31 l-44 21 -11 -30 c-10
-26 -16 -30 -48 -30 l-37 0 -12 58 c-13 65 -38 202 -47 250 -5 32 -5 32 34 32
38 0 41 -2 67 -53 42 -85 162 -187 218 -187 9 0 20 -4 23 -10 8 -12 172 -13
179 -1 3 4 19 11 34 14 16 3 46 22 66 41 31 31 36 42 36 82 0 37 -5 51 -29 75
-16 16 -39 29 -50 29 -11 0 -22 4 -25 9 -4 5 -29 12 -56 16 -27 4 -52 11 -55
15 -3 4 -28 11 -55 15 -27 4 -52 11 -56 16 -3 5 -16 9 -30 9 -30 0 -148 40
-152 51 -2 5 -9 9 -16 9 -14 0 -75 63 -94 97 -14 26 -17 173 -3 173 5 0 12 11
15 24 7 28 92 116 112 116 3 0 20 6 37 14 18 8 39 17 47 20 8 3 74 4 145 3
120 -3 134 -5 179 -30z m2241 10 c17 -9 34 -17 38 -17 25 0 123 -98 146 -147
12 -26 26 -56 32 -65 5 -10 9 -43 9 -73 l0 -55 -314 0 -314 0 -4 -47 c-5 -63
8 -183 22 -197 5 -5 10 -17 10 -25 0 -27 63 -113 101 -137 86 -54 164 -66 250
-38 53 17 135 84 158 128 8 14 19 26 26 26 25 0 65 -26 65 -43 0 -48 -142
-187 -191 -187 -9 0 -19 -4 -21 -10 -5 -15 -143 -26 -243 -19 -75 5 -101 12
-152 39 -34 17 -82 51 -105 75 -49 49 -104 146 -114 202 -4 21 -11 43 -16 50
-12 15 -5 206 10 258 6 22 21 60 33 85 24 49 125 160 146 160 7 0 13 5 13 10
0 6 5 10 11 10 6 0 25 6 42 14 18 8 39 17 47 20 8 3 76 4 150 3 104 -3 142 -7
165 -20z"/>
<path d="M9080 5661 c0 -5 -11 -12 -25 -15 -15 -4 -27 -16 -31 -31 -3 -14 -10
-25 -15 -25 -5 0 -9 -9 -9 -20 0 -19 7 -20 110 -20 73 0 110 4 110 11 0 28
-35 80 -63 94 -33 17 -77 20 -77 6z"/>
<path d="M7180 5330 c-8 -5 -27 -10 -42 -10 -16 0 -37 -9 -48 -20 -19 -19 -20
-33 -20 -251 l0 -231 173 4 c179 4 195 8 245 53 12 12 33 43 48 70 21 40 26
64 27 126 0 79 -14 125 -55 178 -25 32 -87 70 -115 71 -12 0 -25 5 -28 10 -8
13 -165 13 -185 0z"/>
<path d="M10067 5005 c-15 -9 -39 -35 -54 -58 -25 -38 -28 -52 -31 -157 -3
-104 -1 -119 20 -159 35 -68 63 -84 148 -84 86 0 114 17 148 87 20 41 24 64
24 150 0 110 -19 172 -62 211 -29 26 -152 33 -193 10z"/>
<path d="M9920 4155 c-14 -8 -40 -30 -59 -49 -31 -32 -35 -42 -34 -87 1 -46 5
-56 36 -86 20 -18 39 -33 44 -33 4 0 21 -7 38 -16 16 -8 73 -19 125 -24 98 -8
279 3 289 18 3 5 17 12 31 15 63 15 109 98 88 157 -18 52 -54 62 -323 96 -187
23 -208 24 -235 9z"/>
<path d="M9160 3980 c-8 -5 -25 -10 -37 -10 -12 0 -34 -11 -48 -25 l-25 -26 0
-196 0 -196 197 7 c109 3 202 11 207 16 6 6 19 10 31 10 58 0 154 82 155 133
0 15 5 27 10 27 22 0 1 106 -32 161 -20 31 -105 79 -162 91 -71 15 -278 21
-296 8z"/>
<path d="M9050 3221 c0 -127 4 -241 10 -255 20 -54 48 -61 235 -61 145 0 177
3 220 20 28 10 56 24 63 30 86 68 117 130 117 235 -1 104 -38 170 -125 219
-28 16 -163 29 -377 36 l-143 5 0 -229z"/>
<path d="M9255 4640 c-3 -5 -25 -10 -48 -10 -23 0 -58 -5 -77 -10 -19 -5 -56
-15 -82 -21 -27 -7 -48 -16 -48 -20 0 -4 -10 -9 -23 -13 -33 -8 -85 -63 -96
-101 -19 -72 18 -133 99 -159 44 -14 54 -14 114 1 36 9 66 20 66 24 0 5 5 9
12 9 6 0 33 14 60 31 l48 31 0 118 c0 108 -8 147 -25 120z"/>
<path d="M12996 4641 c-3 -4 -40 -11 -83 -15 -42 -3 -82 -11 -87 -16 -6 -6
-19 -10 -29 -10 -27 0 -102 -38 -138 -71 -54 -48 -58 -140 -9 -189 31 -31 115
-54 149 -41 14 6 43 13 64 17 20 3 37 10 37 15 0 5 6 9 14 9 7 0 34 16 60 35
l46 36 0 119 c0 107 -7 139 -24 111z"/>
<path d="M10473 3633 c-18 -2 -33 -8 -33 -14 0 -5 -7 -9 -16 -9 -9 0 -30 -15
-47 -34 -45 -48 -54 -60 -62 -87 -4 -13 -12 -29 -17 -36 -15 -19 -26 -197 -17
-296 16 -188 104 -282 263 -280 43 0 72 5 74 12 2 6 9 11 16 11 15 0 86 72 86
88 0 7 4 12 10 12 5 0 12 17 15 38 3 20 11 46 17 56 12 23 13 293 0 309 -5 7
-12 27 -16 46 -22 118 -146 201 -273 184z"/>
<path d="M11523 3633 c-18 -2 -33 -8 -33 -14 0 -5 -7 -9 -16 -9 -9 0 -30 -15
-47 -34 -45 -48 -54 -60 -62 -87 -4 -13 -12 -29 -17 -36 -5 -6 -13 -53 -18
-105 -12 -113 -12 -95 0 -199 13 -121 69 -223 135 -245 11 -4 23 -11 26 -17
10 -14 172 -14 177 1 2 7 9 12 16 12 29 0 116 118 116 157 0 10 5 24 11 30 13
13 14 299 1 316 -5 7 -12 27 -16 46 -22 118 -146 201 -273 184z"/>
<path d="M15865 3613 c-40 -21 -83 -69 -106 -118 -36 -77 -44 -74 183 -74 111
0 205 2 209 4 10 6 -9 109 -21 113 -5 2 -10 9 -10 15 0 7 -22 27 -49 45 -43
28 -58 32 -113 32 -38 -1 -75 -7 -93 -17z"/>
</g>
</svg>
